<svg width="14" height="18" viewBox="0 0 14 18" fill="none" xmlns="http://www.w3.org/2000/svg">
<g clip-path="url(#clip0_30540_4449)">
<rect x="3" y="9" width="1" height="9" rx="0.5" fill="black"/>
<path d="M3 5.00965C3 4.72977 3.22972 4.50439 3.50955 4.50974V4.50974C3.78192 4.51494 4 4.73723 4 5.00965V9.5C4 9.77614 3.77614 10 3.5 10V10C3.22386 10 3 9.77614 3 9.5V5.00965Z" fill="black"/>
<rect x="10" y="9" width="1" height="9" rx="0.5" fill="black"/>
<path d="M10 5H11V6.79289C11 7.23835 10.4614 7.46143 10.1464 7.14645V7.14645C10.0527 7.05268 10 6.9255 10 6.79289V5Z" fill="black"/>
<rect x="14" y="9" width="1" height="14" rx="0.5" transform="rotate(90 14 9)" fill="black"/>
<rect x="6" y="17" width="1" height="5" rx="0.5" transform="rotate(90 6 17)" fill="black"/>
<rect x="13" y="17" width="1" height="5" rx="0.5" transform="rotate(90 13 17)" fill="black"/>
<mask id="path-8-inside-1_30540_4449" fill="white">
<path d="M3 5C3 4.34339 3.10346 3.69321 3.30448 3.08658C3.5055 2.47995 3.80014 1.92876 4.17157 1.46447C4.54301 1.00017 4.98396 0.631876 5.46927 0.380603C5.95457 0.129329 6.47471 5.2936e-07 7 6.03983e-07C7.52529 6.78607e-07 8.04543 0.12933 8.53073 0.380603C9.01604 0.631877 9.45699 1.00017 9.82843 1.46447C10.1999 1.92876 10.4945 2.47996 10.6955 3.08658C10.8965 3.69321 11 4.34339 11 5L9.98957 5C9.98957 4.50926 9.91224 4.02332 9.762 3.56993C9.61176 3.11654 9.39155 2.70458 9.11394 2.35757C8.83634 2.01056 8.50677 1.7353 8.14406 1.5475C7.78135 1.3597 7.3926 1.26304 7 1.26304C6.6074 1.26304 6.21865 1.3597 5.85594 1.5475C5.49323 1.7353 5.16366 2.01056 4.88606 2.35757C4.60845 2.70458 4.38824 3.11654 4.238 3.56993C4.08776 4.02332 4.01043 4.50926 4.01043 5L3 5Z"/>
</mask>
<path d="M3 5C3 4.34339 3.10346 3.69321 3.30448 3.08658C3.5055 2.47995 3.80014 1.92876 4.17157 1.46447C4.54301 1.00017 4.98396 0.631876 5.46927 0.380603C5.95457 0.129329 6.47471 5.2936e-07 7 6.03983e-07C7.52529 6.78607e-07 8.04543 0.12933 8.53073 0.380603C9.01604 0.631877 9.45699 1.00017 9.82843 1.46447C10.1999 1.92876 10.4945 2.47996 10.6955 3.08658C10.8965 3.69321 11 4.34339 11 5L9.98957 5C9.98957 4.50926 9.91224 4.02332 9.762 3.56993C9.61176 3.11654 9.39155 2.70458 9.11394 2.35757C8.83634 2.01056 8.50677 1.7353 8.14406 1.5475C7.78135 1.3597 7.3926 1.26304 7 1.26304C6.6074 1.26304 6.21865 1.3597 5.85594 1.5475C5.49323 1.7353 5.16366 2.01056 4.88606 2.35757C4.60845 2.70458 4.38824 3.11654 4.238 3.56993C4.08776 4.02332 4.01043 4.50926 4.01043 5L3 5Z" stroke="black" stroke-width="2" mask="url(#path-8-inside-1_30540_4449)"/>
<path d="M11 7C11 7.55228 10.5523 8 10 8C9.44772 8 9 7.55228 9 7C9 6.44772 9.44772 6 10 6C10.5523 6 11 6.44772 11 7Z" fill="black"/>
</g>
<defs>
<clipPath id="clip0_30540_4449">
<rect width="14" height="18" fill="white"/>
</clipPath>
</defs>
</svg>
